<svg xmlns="http://www.w3.org/2000/svg" viewBox="0 0 600 800" width="600" height="800">
  <!-- "The line drawn between the figures." One ink. The Sixscore of Grandsire on five bells as
       pricked in Tintinnalogia (1668, Gutenberg #18567, lines 4532-4656), the treble cut through it,
       and the two rules the book draws before each single. Rows from workshop/ringing/changes.py,
       which fixtures.py proves equal to the book. lector, 2026-08-22, workshop/cuts. -->
  <rect width="600" height="800" fill="#f2ead8"/>
  <g font-family="Georgia, serif" font-size="12" fill="#1a1612">
    <text x="100" y="70.0" text-anchor="middle">2</text>
    <text x="120" y="70.0" text-anchor="middle">3</text>
    <text x="140" y="70.0" text-anchor="middle">4</text>
    <text x="160" y="70.0" text-anchor="middle">5</text>
    <text x="80" y="85.6" text-anchor="middle">2</text>
    <text x="120" y="85.6" text-anchor="middle">3</text>
    <text x="140" y="85.6" text-anchor="middle">5</text>
    <text x="160" y="85.6" text-anchor="middle">4</text>
    <text x="80" y="101.2" text-anchor="middle">2</text>
    <text x="100" y="101.2" text-anchor="middle">3</text>
    <text x="140" y="101.2" text-anchor="middle">4</text>
    <text x="160" y="101.2" text-anchor="middle">5</text>
    <text x="80" y="116.8" text-anchor="middle">3</text>
    <text x="100" y="116.8" text-anchor="middle">2</text>
    <text x="120" y="116.8" text-anchor="middle">4</text>
    <text x="160" y="116.8" text-anchor="middle">5</text>
    <text x="80" y="132.4" text-anchor="middle">3</text>
    <text x="100" y="132.4" text-anchor="middle">4</text>
    <text x="120" y="132.4" text-anchor="middle">2</text>
    <text x="140" y="132.4" text-anchor="middle">5</text>
    <text x="80" y="148.0" text-anchor="middle">4</text>
    <text x="100" y="148.0" text-anchor="middle">3</text>
    <text x="120" y="148.0" text-anchor="middle">5</text>
    <text x="140" y="148.0" text-anchor="middle">2</text>
    <text x="80" y="163.6" text-anchor="middle">4</text>
    <text x="100" y="163.6" text-anchor="middle">5</text>
    <text x="120" y="163.6" text-anchor="middle">3</text>
    <text x="160" y="163.6" text-anchor="middle">2</text>
    <text x="80" y="179.2" text-anchor="middle">5</text>
    <text x="100" y="179.2" text-anchor="middle">4</text>
    <text x="140" y="179.2" text-anchor="middle">3</text>
    <text x="160" y="179.2" text-anchor="middle">2</text>
    <text x="80" y="194.8" text-anchor="middle">5</text>
    <text x="120" y="194.8" text-anchor="middle">4</text>
    <text x="140" y="194.8" text-anchor="middle">2</text>
    <text x="160" y="194.8" text-anchor="middle">3</text>
    <text x="100" y="210.4" text-anchor="middle">5</text>
    <text x="120" y="210.4" text-anchor="middle">2</text>
    <text x="140" y="210.4" text-anchor="middle">4</text>
    <text x="160" y="210.4" text-anchor="middle">3</text>
    <text x="100" y="226.0" text-anchor="middle">2</text>
    <text x="120" y="226.0" text-anchor="middle">5</text>
    <text x="140" y="226.0" text-anchor="middle">3</text>
    <text x="160" y="226.0" text-anchor="middle">4</text>
    <text x="80" y="241.6" text-anchor="middle">2</text>
    <text x="120" y="241.6" text-anchor="middle">5</text>
    <text x="140" y="241.6" text-anchor="middle">4</text>
    <text x="160" y="241.6" text-anchor="middle">3</text>
    <text x="80" y="257.2" text-anchor="middle">2</text>
    <text x="100" y="257.2" text-anchor="middle">5</text>
    <text x="140" y="257.2" text-anchor="middle">3</text>
    <text x="160" y="257.2" text-anchor="middle">4</text>
    <text x="80" y="272.8" text-anchor="middle">5</text>
    <text x="100" y="272.8" text-anchor="middle">2</text>
    <text x="120" y="272.8" text-anchor="middle">3</text>
    <text x="160" y="272.8" text-anchor="middle">4</text>
    <text x="80" y="288.4" text-anchor="middle">5</text>
    <text x="100" y="288.4" text-anchor="middle">3</text>
    <text x="120" y="288.4" text-anchor="middle">2</text>
    <text x="140" y="288.4" text-anchor="middle">4</text>
    <text x="80" y="304.0" text-anchor="middle">3</text>
    <text x="100" y="304.0" text-anchor="middle">5</text>
    <text x="120" y="304.0" text-anchor="middle">4</text>
    <text x="140" y="304.0" text-anchor="middle">2</text>
    <text x="80" y="319.6" text-anchor="middle">3</text>
    <text x="100" y="319.6" text-anchor="middle">4</text>
    <text x="120" y="319.6" text-anchor="middle">5</text>
    <text x="160" y="319.6" text-anchor="middle">2</text>
    <text x="80" y="335.2" text-anchor="middle">4</text>
    <text x="100" y="335.2" text-anchor="middle">3</text>
    <text x="140" y="335.2" text-anchor="middle">5</text>
    <text x="160" y="335.2" text-anchor="middle">2</text>
    <text x="80" y="350.8" text-anchor="middle">4</text>
    <text x="120" y="350.8" text-anchor="middle">3</text>
    <text x="140" y="350.8" text-anchor="middle">2</text>
    <text x="160" y="350.8" text-anchor="middle">5</text>
    <text x="100" y="366.4" text-anchor="middle">4</text>
    <text x="120" y="366.4" text-anchor="middle">3</text>
    <text x="140" y="366.4" text-anchor="middle">5</text>
    <text x="160" y="366.4" text-anchor="middle">2</text>
    <text x="100" y="382.0" text-anchor="middle">3</text>
    <text x="120" y="382.0" text-anchor="middle">4</text>
    <text x="140" y="382.0" text-anchor="middle">2</text>
    <text x="160" y="382.0" text-anchor="middle">5</text>
    <text x="80" y="397.6" text-anchor="middle">3</text>
    <text x="120" y="397.6" text-anchor="middle">4</text>
    <text x="140" y="397.6" text-anchor="middle">5</text>
    <text x="160" y="397.6" text-anchor="middle">2</text>
    <text x="80" y="413.2" text-anchor="middle">3</text>
    <text x="100" y="413.2" text-anchor="middle">4</text>
    <text x="140" y="413.2" text-anchor="middle">2</text>
    <text x="160" y="413.2" text-anchor="middle">5</text>
    <text x="80" y="428.8" text-anchor="middle">4</text>
    <text x="100" y="428.8" text-anchor="middle">3</text>
    <text x="120" y="428.8" text-anchor="middle">2</text>
    <text x="160" y="428.8" text-anchor="middle">5</text>
    <text x="80" y="444.4" text-anchor="middle">4</text>
    <text x="100" y="444.4" text-anchor="middle">2</text>
    <text x="120" y="444.4" text-anchor="middle">3</text>
    <text x="140" y="444.4" text-anchor="middle">5</text>
    <text x="80" y="460.0" text-anchor="middle">2</text>
    <text x="100" y="460.0" text-anchor="middle">4</text>
    <text x="120" y="460.0" text-anchor="middle">5</text>
    <text x="140" y="460.0" text-anchor="middle">3</text>
    <text x="80" y="475.6" text-anchor="middle">2</text>
    <text x="100" y="475.6" text-anchor="middle">5</text>
    <text x="120" y="475.6" text-anchor="middle">4</text>
    <text x="160" y="475.6" text-anchor="middle">3</text>
    <text x="80" y="491.2" text-anchor="middle">5</text>
    <text x="100" y="491.2" text-anchor="middle">2</text>
    <text x="140" y="491.2" text-anchor="middle">4</text>
    <text x="160" y="491.2" text-anchor="middle">3</text>
    <text x="80" y="506.8" text-anchor="middle">5</text>
    <text x="120" y="506.8" text-anchor="middle">2</text>
    <text x="140" y="506.8" text-anchor="middle">3</text>
    <text x="160" y="506.8" text-anchor="middle">4</text>
    <text x="100" y="522.4" text-anchor="middle">5</text>
    <text x="120" y="522.4" text-anchor="middle">3</text>
    <text x="140" y="522.4" text-anchor="middle">2</text>
    <text x="160" y="522.4" text-anchor="middle">4</text>
    <text x="100" y="538.0" text-anchor="middle">3</text>
    <text x="120" y="538.0" text-anchor="middle">5</text>
    <text x="140" y="538.0" text-anchor="middle">4</text>
    <text x="160" y="538.0" text-anchor="middle">2</text>
    <text x="80" y="553.6" text-anchor="middle">3</text>
    <text x="120" y="553.6" text-anchor="middle">5</text>
    <text x="140" y="553.6" text-anchor="middle">2</text>
    <text x="160" y="553.6" text-anchor="middle">4</text>
    <text x="80" y="569.2" text-anchor="middle">3</text>
    <text x="100" y="569.2" text-anchor="middle">5</text>
    <text x="140" y="569.2" text-anchor="middle">4</text>
    <text x="160" y="569.2" text-anchor="middle">2</text>
    <text x="80" y="584.8" text-anchor="middle">5</text>
    <text x="100" y="584.8" text-anchor="middle">3</text>
    <text x="120" y="584.8" text-anchor="middle">4</text>
    <text x="160" y="584.8" text-anchor="middle">2</text>
    <text x="80" y="600.4" text-anchor="middle">5</text>
    <text x="100" y="600.4" text-anchor="middle">4</text>
    <text x="120" y="600.4" text-anchor="middle">3</text>
    <text x="140" y="600.4" text-anchor="middle">2</text>
    <text x="80" y="616.0" text-anchor="middle">4</text>
    <text x="100" y="616.0" text-anchor="middle">5</text>
    <text x="120" y="616.0" text-anchor="middle">2</text>
    <text x="140" y="616.0" text-anchor="middle">3</text>
    <text x="80" y="631.6" text-anchor="middle">4</text>
    <text x="100" y="631.6" text-anchor="middle">2</text>
    <text x="120" y="631.6" text-anchor="middle">5</text>
    <text x="160" y="631.6" text-anchor="middle">3</text>
    <text x="80" y="647.2" text-anchor="middle">2</text>
    <text x="100" y="647.2" text-anchor="middle">4</text>
    <text x="140" y="647.2" text-anchor="middle">5</text>
    <text x="160" y="647.2" text-anchor="middle">3</text>
    <text x="80" y="662.8" text-anchor="middle">2</text>
    <text x="120" y="662.8" text-anchor="middle">4</text>
    <text x="140" y="662.8" text-anchor="middle">3</text>
    <text x="160" y="662.8" text-anchor="middle">5</text>
    <text x="100" y="678.4" text-anchor="middle">2</text>
    <text x="120" y="678.4" text-anchor="middle">4</text>
    <text x="140" y="678.4" text-anchor="middle">5</text>
    <text x="160" y="678.4" text-anchor="middle">3</text>
    <text x="100" y="694.0" text-anchor="middle">4</text>
    <text x="120" y="694.0" text-anchor="middle">2</text>
    <text x="140" y="694.0" text-anchor="middle">3</text>
    <text x="160" y="694.0" text-anchor="middle">5</text>
    <text x="260" y="70.0" text-anchor="middle">4</text>
    <text x="300" y="70.0" text-anchor="middle">2</text>
    <text x="320" y="70.0" text-anchor="middle">5</text>
    <text x="340" y="70.0" text-anchor="middle">3</text>
    <text x="260" y="85.6" text-anchor="middle">4</text>
    <text x="280" y="85.6" text-anchor="middle">2</text>
    <text x="320" y="85.6" text-anchor="middle">3</text>
    <text x="340" y="85.6" text-anchor="middle">5</text>
    <text x="260" y="101.2" text-anchor="middle">2</text>
    <text x="280" y="101.2" text-anchor="middle">4</text>
    <text x="300" y="101.2" text-anchor="middle">3</text>
    <text x="340" y="101.2" text-anchor="middle">5</text>
    <text x="260" y="116.8" text-anchor="middle">2</text>
    <text x="280" y="116.8" text-anchor="middle">3</text>
    <text x="300" y="116.8" text-anchor="middle">4</text>
    <text x="320" y="116.8" text-anchor="middle">5</text>
    <text x="260" y="132.4" text-anchor="middle">3</text>
    <text x="280" y="132.4" text-anchor="middle">2</text>
    <text x="300" y="132.4" text-anchor="middle">5</text>
    <text x="320" y="132.4" text-anchor="middle">4</text>
    <text x="260" y="148.0" text-anchor="middle">3</text>
    <text x="280" y="148.0" text-anchor="middle">5</text>
    <text x="300" y="148.0" text-anchor="middle">2</text>
    <text x="340" y="148.0" text-anchor="middle">4</text>
    <text x="260" y="163.6" text-anchor="middle">5</text>
    <text x="280" y="163.6" text-anchor="middle">3</text>
    <text x="320" y="163.6" text-anchor="middle">2</text>
    <text x="340" y="163.6" text-anchor="middle">4</text>
    <text x="260" y="179.2" text-anchor="middle">5</text>
    <text x="300" y="179.2" text-anchor="middle">3</text>
    <text x="320" y="179.2" text-anchor="middle">4</text>
    <text x="340" y="179.2" text-anchor="middle">2</text>
    <text x="280" y="194.8" text-anchor="middle">5</text>
    <text x="300" y="194.8" text-anchor="middle">4</text>
    <text x="320" y="194.8" text-anchor="middle">3</text>
    <text x="340" y="194.8" text-anchor="middle">2</text>
    <text x="280" y="210.4" text-anchor="middle">4</text>
    <text x="300" y="210.4" text-anchor="middle">5</text>
    <text x="320" y="210.4" text-anchor="middle">2</text>
    <text x="340" y="210.4" text-anchor="middle">3</text>
    <text x="260" y="226.0" text-anchor="middle">4</text>
    <text x="300" y="226.0" text-anchor="middle">5</text>
    <text x="320" y="226.0" text-anchor="middle">3</text>
    <text x="340" y="226.0" text-anchor="middle">2</text>
    <text x="260" y="241.6" text-anchor="middle">4</text>
    <text x="280" y="241.6" text-anchor="middle">5</text>
    <text x="320" y="241.6" text-anchor="middle">2</text>
    <text x="340" y="241.6" text-anchor="middle">3</text>
    <text x="260" y="257.2" text-anchor="middle">5</text>
    <text x="280" y="257.2" text-anchor="middle">4</text>
    <text x="300" y="257.2" text-anchor="middle">2</text>
    <text x="340" y="257.2" text-anchor="middle">3</text>
    <text x="260" y="272.8" text-anchor="middle">5</text>
    <text x="280" y="272.8" text-anchor="middle">2</text>
    <text x="300" y="272.8" text-anchor="middle">4</text>
    <text x="320" y="272.8" text-anchor="middle">3</text>
    <text x="260" y="288.4" text-anchor="middle">2</text>
    <text x="280" y="288.4" text-anchor="middle">5</text>
    <text x="300" y="288.4" text-anchor="middle">3</text>
    <text x="320" y="288.4" text-anchor="middle">4</text>
    <text x="260" y="304.0" text-anchor="middle">2</text>
    <text x="280" y="304.0" text-anchor="middle">3</text>
    <text x="300" y="304.0" text-anchor="middle">5</text>
    <text x="340" y="304.0" text-anchor="middle">4</text>
    <text x="260" y="319.6" text-anchor="middle">3</text>
    <text x="280" y="319.6" text-anchor="middle">2</text>
    <text x="320" y="319.6" text-anchor="middle">5</text>
    <text x="340" y="319.6" text-anchor="middle">4</text>
    <text x="260" y="335.2" text-anchor="middle">3</text>
    <text x="300" y="335.2" text-anchor="middle">2</text>
    <text x="320" y="335.2" text-anchor="middle">4</text>
    <text x="340" y="335.2" text-anchor="middle">5</text>
    <text x="280" y="350.8" text-anchor="middle">3</text>
    <text x="300" y="350.8" text-anchor="middle">2</text>
    <text x="320" y="350.8" text-anchor="middle">5</text>
    <text x="340" y="350.8" text-anchor="middle">4</text>
    <text x="280" y="366.4" text-anchor="middle">3</text>
    <text x="300" y="366.4" text-anchor="middle">2</text>
    <text x="320" y="366.4" text-anchor="middle">4</text>
    <text x="340" y="366.4" text-anchor="middle">5</text>
    <text x="260" y="382.0" text-anchor="middle">3</text>
    <text x="300" y="382.0" text-anchor="middle">2</text>
    <text x="320" y="382.0" text-anchor="middle">5</text>
    <text x="340" y="382.0" text-anchor="middle">4</text>
    <text x="260" y="397.6" text-anchor="middle">3</text>
    <text x="280" y="397.6" text-anchor="middle">2</text>
    <text x="320" y="397.6" text-anchor="middle">4</text>
    <text x="340" y="397.6" text-anchor="middle">5</text>
    <text x="260" y="413.2" text-anchor="middle">2</text>
    <text x="280" y="413.2" text-anchor="middle">3</text>
    <text x="300" y="413.2" text-anchor="middle">4</text>
    <text x="340" y="413.2" text-anchor="middle">5</text>
    <text x="260" y="428.8" text-anchor="middle">2</text>
    <text x="280" y="428.8" text-anchor="middle">4</text>
    <text x="300" y="428.8" text-anchor="middle">3</text>
    <text x="320" y="428.8" text-anchor="middle">5</text>
    <text x="260" y="444.4" text-anchor="middle">4</text>
    <text x="280" y="444.4" text-anchor="middle">2</text>
    <text x="300" y="444.4" text-anchor="middle">5</text>
    <text x="320" y="444.4" text-anchor="middle">3</text>
    <text x="260" y="460.0" text-anchor="middle">4</text>
    <text x="280" y="460.0" text-anchor="middle">5</text>
    <text x="300" y="460.0" text-anchor="middle">2</text>
    <text x="340" y="460.0" text-anchor="middle">3</text>
    <text x="260" y="475.6" text-anchor="middle">5</text>
    <text x="280" y="475.6" text-anchor="middle">4</text>
    <text x="320" y="475.6" text-anchor="middle">2</text>
    <text x="340" y="475.6" text-anchor="middle">3</text>
    <text x="260" y="491.2" text-anchor="middle">5</text>
    <text x="300" y="491.2" text-anchor="middle">4</text>
    <text x="320" y="491.2" text-anchor="middle">3</text>
    <text x="340" y="491.2" text-anchor="middle">2</text>
    <text x="280" y="506.8" text-anchor="middle">5</text>
    <text x="300" y="506.8" text-anchor="middle">3</text>
    <text x="320" y="506.8" text-anchor="middle">4</text>
    <text x="340" y="506.8" text-anchor="middle">2</text>
    <text x="280" y="522.4" text-anchor="middle">3</text>
    <text x="300" y="522.4" text-anchor="middle">5</text>
    <text x="320" y="522.4" text-anchor="middle">2</text>
    <text x="340" y="522.4" text-anchor="middle">4</text>
    <text x="260" y="538.0" text-anchor="middle">3</text>
    <text x="300" y="538.0" text-anchor="middle">5</text>
    <text x="320" y="538.0" text-anchor="middle">4</text>
    <text x="340" y="538.0" text-anchor="middle">2</text>
    <text x="260" y="553.6" text-anchor="middle">3</text>
    <text x="280" y="553.6" text-anchor="middle">5</text>
    <text x="320" y="553.6" text-anchor="middle">2</text>
    <text x="340" y="553.6" text-anchor="middle">4</text>
    <text x="260" y="569.2" text-anchor="middle">5</text>
    <text x="280" y="569.2" text-anchor="middle">3</text>
    <text x="300" y="569.2" text-anchor="middle">2</text>
    <text x="340" y="569.2" text-anchor="middle">4</text>
    <text x="260" y="584.8" text-anchor="middle">5</text>
    <text x="280" y="584.8" text-anchor="middle">2</text>
    <text x="300" y="584.8" text-anchor="middle">3</text>
    <text x="320" y="584.8" text-anchor="middle">4</text>
    <text x="260" y="600.4" text-anchor="middle">2</text>
    <text x="280" y="600.4" text-anchor="middle">5</text>
    <text x="300" y="600.4" text-anchor="middle">4</text>
    <text x="320" y="600.4" text-anchor="middle">3</text>
    <text x="260" y="616.0" text-anchor="middle">2</text>
    <text x="280" y="616.0" text-anchor="middle">4</text>
    <text x="300" y="616.0" text-anchor="middle">5</text>
    <text x="340" y="616.0" text-anchor="middle">3</text>
    <text x="260" y="631.6" text-anchor="middle">4</text>
    <text x="280" y="631.6" text-anchor="middle">2</text>
    <text x="320" y="631.6" text-anchor="middle">5</text>
    <text x="340" y="631.6" text-anchor="middle">3</text>
    <text x="260" y="647.2" text-anchor="middle">4</text>
    <text x="300" y="647.2" text-anchor="middle">2</text>
    <text x="320" y="647.2" text-anchor="middle">3</text>
    <text x="340" y="647.2" text-anchor="middle">5</text>
    <text x="280" y="662.8" text-anchor="middle">4</text>
    <text x="300" y="662.8" text-anchor="middle">2</text>
    <text x="320" y="662.8" text-anchor="middle">5</text>
    <text x="340" y="662.8" text-anchor="middle">3</text>
    <text x="280" y="678.4" text-anchor="middle">2</text>
    <text x="300" y="678.4" text-anchor="middle">4</text>
    <text x="320" y="678.4" text-anchor="middle">3</text>
    <text x="340" y="678.4" text-anchor="middle">5</text>
    <text x="440" y="70.0" text-anchor="middle">2</text>
    <text x="480" y="70.0" text-anchor="middle">4</text>
    <text x="500" y="70.0" text-anchor="middle">5</text>
    <text x="520" y="70.0" text-anchor="middle">3</text>
    <text x="440" y="85.6" text-anchor="middle">2</text>
    <text x="460" y="85.6" text-anchor="middle">4</text>
    <text x="500" y="85.6" text-anchor="middle">3</text>
    <text x="520" y="85.6" text-anchor="middle">5</text>
    <text x="440" y="101.2" text-anchor="middle">4</text>
    <text x="460" y="101.2" text-anchor="middle">2</text>
    <text x="480" y="101.2" text-anchor="middle">3</text>
    <text x="520" y="101.2" text-anchor="middle">5</text>
    <text x="440" y="116.8" text-anchor="middle">4</text>
    <text x="460" y="116.8" text-anchor="middle">3</text>
    <text x="480" y="116.8" text-anchor="middle">2</text>
    <text x="500" y="116.8" text-anchor="middle">5</text>
    <text x="440" y="132.4" text-anchor="middle">3</text>
    <text x="460" y="132.4" text-anchor="middle">4</text>
    <text x="480" y="132.4" text-anchor="middle">5</text>
    <text x="500" y="132.4" text-anchor="middle">2</text>
    <text x="440" y="148.0" text-anchor="middle">3</text>
    <text x="460" y="148.0" text-anchor="middle">5</text>
    <text x="480" y="148.0" text-anchor="middle">4</text>
    <text x="520" y="148.0" text-anchor="middle">2</text>
    <text x="440" y="163.6" text-anchor="middle">5</text>
    <text x="460" y="163.6" text-anchor="middle">3</text>
    <text x="500" y="163.6" text-anchor="middle">4</text>
    <text x="520" y="163.6" text-anchor="middle">2</text>
    <text x="440" y="179.2" text-anchor="middle">5</text>
    <text x="480" y="179.2" text-anchor="middle">3</text>
    <text x="500" y="179.2" text-anchor="middle">2</text>
    <text x="520" y="179.2" text-anchor="middle">4</text>
    <text x="460" y="194.8" text-anchor="middle">5</text>
    <text x="480" y="194.8" text-anchor="middle">2</text>
    <text x="500" y="194.8" text-anchor="middle">3</text>
    <text x="520" y="194.8" text-anchor="middle">4</text>
    <text x="460" y="210.4" text-anchor="middle">2</text>
    <text x="480" y="210.4" text-anchor="middle">5</text>
    <text x="500" y="210.4" text-anchor="middle">4</text>
    <text x="520" y="210.4" text-anchor="middle">3</text>
    <text x="440" y="226.0" text-anchor="middle">2</text>
    <text x="480" y="226.0" text-anchor="middle">5</text>
    <text x="500" y="226.0" text-anchor="middle">3</text>
    <text x="520" y="226.0" text-anchor="middle">4</text>
    <text x="440" y="241.6" text-anchor="middle">2</text>
    <text x="460" y="241.6" text-anchor="middle">5</text>
    <text x="500" y="241.6" text-anchor="middle">4</text>
    <text x="520" y="241.6" text-anchor="middle">3</text>
    <text x="440" y="257.2" text-anchor="middle">5</text>
    <text x="460" y="257.2" text-anchor="middle">2</text>
    <text x="480" y="257.2" text-anchor="middle">4</text>
    <text x="520" y="257.2" text-anchor="middle">3</text>
    <text x="440" y="272.8" text-anchor="middle">5</text>
    <text x="460" y="272.8" text-anchor="middle">4</text>
    <text x="480" y="272.8" text-anchor="middle">2</text>
    <text x="500" y="272.8" text-anchor="middle">3</text>
    <text x="440" y="288.4" text-anchor="middle">4</text>
    <text x="460" y="288.4" text-anchor="middle">5</text>
    <text x="480" y="288.4" text-anchor="middle">3</text>
    <text x="500" y="288.4" text-anchor="middle">2</text>
    <text x="440" y="304.0" text-anchor="middle">4</text>
    <text x="460" y="304.0" text-anchor="middle">3</text>
    <text x="480" y="304.0" text-anchor="middle">5</text>
    <text x="520" y="304.0" text-anchor="middle">2</text>
    <text x="440" y="319.6" text-anchor="middle">3</text>
    <text x="460" y="319.6" text-anchor="middle">4</text>
    <text x="500" y="319.6" text-anchor="middle">5</text>
    <text x="520" y="319.6" text-anchor="middle">2</text>
    <text x="440" y="335.2" text-anchor="middle">3</text>
    <text x="480" y="335.2" text-anchor="middle">4</text>
    <text x="500" y="335.2" text-anchor="middle">2</text>
    <text x="520" y="335.2" text-anchor="middle">5</text>
    <text x="460" y="350.8" text-anchor="middle">3</text>
    <text x="480" y="350.8" text-anchor="middle">4</text>
    <text x="500" y="350.8" text-anchor="middle">5</text>
    <text x="520" y="350.8" text-anchor="middle">2</text>
    <text x="460" y="366.4" text-anchor="middle">4</text>
    <text x="480" y="366.4" text-anchor="middle">3</text>
    <text x="500" y="366.4" text-anchor="middle">2</text>
    <text x="520" y="366.4" text-anchor="middle">5</text>
    <text x="440" y="382.0" text-anchor="middle">4</text>
    <text x="480" y="382.0" text-anchor="middle">3</text>
    <text x="500" y="382.0" text-anchor="middle">5</text>
    <text x="520" y="382.0" text-anchor="middle">2</text>
    <text x="440" y="397.6" text-anchor="middle">4</text>
    <text x="460" y="397.6" text-anchor="middle">3</text>
    <text x="500" y="397.6" text-anchor="middle">2</text>
    <text x="520" y="397.6" text-anchor="middle">5</text>
    <text x="440" y="413.2" text-anchor="middle">3</text>
    <text x="460" y="413.2" text-anchor="middle">4</text>
    <text x="480" y="413.2" text-anchor="middle">2</text>
    <text x="520" y="413.2" text-anchor="middle">5</text>
    <text x="440" y="428.8" text-anchor="middle">3</text>
    <text x="460" y="428.8" text-anchor="middle">2</text>
    <text x="480" y="428.8" text-anchor="middle">4</text>
    <text x="500" y="428.8" text-anchor="middle">5</text>
    <text x="440" y="444.4" text-anchor="middle">2</text>
    <text x="460" y="444.4" text-anchor="middle">3</text>
    <text x="480" y="444.4" text-anchor="middle">5</text>
    <text x="500" y="444.4" text-anchor="middle">4</text>
    <text x="440" y="460.0" text-anchor="middle">2</text>
    <text x="460" y="460.0" text-anchor="middle">5</text>
    <text x="480" y="460.0" text-anchor="middle">3</text>
    <text x="520" y="460.0" text-anchor="middle">4</text>
    <text x="440" y="475.6" text-anchor="middle">5</text>
    <text x="460" y="475.6" text-anchor="middle">2</text>
    <text x="500" y="475.6" text-anchor="middle">3</text>
    <text x="520" y="475.6" text-anchor="middle">4</text>
    <text x="440" y="491.2" text-anchor="middle">5</text>
    <text x="480" y="491.2" text-anchor="middle">2</text>
    <text x="500" y="491.2" text-anchor="middle">4</text>
    <text x="520" y="491.2" text-anchor="middle">3</text>
    <text x="460" y="506.8" text-anchor="middle">5</text>
    <text x="480" y="506.8" text-anchor="middle">4</text>
    <text x="500" y="506.8" text-anchor="middle">2</text>
    <text x="520" y="506.8" text-anchor="middle">3</text>
    <text x="460" y="522.4" text-anchor="middle">4</text>
    <text x="480" y="522.4" text-anchor="middle">5</text>
    <text x="500" y="522.4" text-anchor="middle">3</text>
    <text x="520" y="522.4" text-anchor="middle">2</text>
    <text x="440" y="538.0" text-anchor="middle">4</text>
    <text x="480" y="538.0" text-anchor="middle">5</text>
    <text x="500" y="538.0" text-anchor="middle">2</text>
    <text x="520" y="538.0" text-anchor="middle">3</text>
    <text x="440" y="553.6" text-anchor="middle">4</text>
    <text x="460" y="553.6" text-anchor="middle">5</text>
    <text x="500" y="553.6" text-anchor="middle">3</text>
    <text x="520" y="553.6" text-anchor="middle">2</text>
    <text x="440" y="569.2" text-anchor="middle">5</text>
    <text x="460" y="569.2" text-anchor="middle">4</text>
    <text x="480" y="569.2" text-anchor="middle">3</text>
    <text x="520" y="569.2" text-anchor="middle">2</text>
    <text x="440" y="584.8" text-anchor="middle">5</text>
    <text x="460" y="584.8" text-anchor="middle">3</text>
    <text x="480" y="584.8" text-anchor="middle">4</text>
    <text x="500" y="584.8" text-anchor="middle">2</text>
    <text x="440" y="600.4" text-anchor="middle">3</text>
    <text x="460" y="600.4" text-anchor="middle">5</text>
    <text x="480" y="600.4" text-anchor="middle">2</text>
    <text x="500" y="600.4" text-anchor="middle">4</text>
    <text x="440" y="616.0" text-anchor="middle">3</text>
    <text x="460" y="616.0" text-anchor="middle">2</text>
    <text x="480" y="616.0" text-anchor="middle">5</text>
    <text x="520" y="616.0" text-anchor="middle">4</text>
    <text x="440" y="631.6" text-anchor="middle">2</text>
    <text x="460" y="631.6" text-anchor="middle">3</text>
    <text x="500" y="631.6" text-anchor="middle">5</text>
    <text x="520" y="631.6" text-anchor="middle">4</text>
    <text x="440" y="647.2" text-anchor="middle">2</text>
    <text x="480" y="647.2" text-anchor="middle">3</text>
    <text x="500" y="647.2" text-anchor="middle">4</text>
    <text x="520" y="647.2" text-anchor="middle">5</text>
    <text x="460" y="662.8" text-anchor="middle">2</text>
    <text x="480" y="662.8" text-anchor="middle">3</text>
    <text x="500" y="662.8" text-anchor="middle">5</text>
    <text x="520" y="662.8" text-anchor="middle">4</text>
    <text x="460" y="678.4" text-anchor="middle">2</text>
    <text x="480" y="678.4" text-anchor="middle">3</text>
    <text x="500" y="678.4" text-anchor="middle">4</text>
    <text x="520" y="678.4" text-anchor="middle">5</text>
  </g>
  <rect x="246.0" y="354.8" width="108.0" height="3" fill="#1a1612"/>
  <rect x="426.0" y="666.8" width="108.0" height="3" fill="#1a1612"/>
  <polyline points="80,65.8 100,81.4 120,97.0 140,112.6 160,128.2 160,143.8 140,159.4 120,175.0 100,190.6 80,206.2 80,221.8 100,237.4 120,253.0 140,268.6 160,284.2 160,299.8 140,315.4 120,331.0 100,346.6 80,362.2 80,377.8 100,393.4 120,409.0 140,424.6 160,440.2 160,455.8 140,471.4 120,487.0 100,502.6 80,518.2 80,533.8 100,549.4 120,565.0 140,580.6 160,596.2 160,611.8 140,627.4 120,643.0 100,658.6 80,674.2 80,689.8" fill="none" stroke="#1a1612" stroke-width="5" stroke-linejoin="round" stroke-linecap="round"/>
  <polyline points="280,65.8 300,81.4 320,97.0 340,112.6 340,128.2 320,143.8 300,159.4 280,175.0 260,190.6 260,206.2 280,221.8 300,237.4 320,253.0 340,268.6 340,284.2 320,299.8 300,315.4 280,331.0 260,346.6 260,362.2 280,377.8 300,393.4 320,409.0 340,424.6 340,440.2 320,455.8 300,471.4 280,487.0 260,502.6 260,518.2 280,533.8 300,549.4 320,565.0 340,580.6 340,596.2 320,611.8 300,627.4 280,643.0 260,658.6 260,674.2" fill="none" stroke="#1a1612" stroke-width="5" stroke-linejoin="round" stroke-linecap="round"/>
  <polyline points="460,65.8 480,81.4 500,97.0 520,112.6 520,128.2 500,143.8 480,159.4 460,175.0 440,190.6 440,206.2 460,221.8 480,237.4 500,253.0 520,268.6 520,284.2 500,299.8 480,315.4 460,331.0 440,346.6 440,362.2 460,377.8 480,393.4 500,409.0 520,424.6 520,440.2 500,455.8 480,471.4 460,487.0 440,502.6 440,518.2 460,533.8 480,549.4 500,565.0 520,580.6 520,596.2 500,611.8 480,627.4 460,643.0 440,658.6 440,674.2" fill="none" stroke="#1a1612" stroke-width="5" stroke-linejoin="round" stroke-linecap="round"/>
  <polyline points="160,65.8 140,81.4 160,97.0 160,112.6 140,128.2 120,143.8 100,159.4 80,175.0 80,190.6 100,206.2 120,221.8 120,237.4 100,253.0 80,268.6 80,284.2 100,299.8 120,315.4 140,331.0 160,346.6 140,362.2 160,377.8 140,393.4 160,409.0 160,424.6 140,440.2 120,455.8 100,471.4 80,487.0 80,502.6 100,518.2 120,533.8 120,549.4 100,565.0 80,580.6 80,596.2 100,611.8 120,627.4 140,643.0 160,658.6 140,674.2 160,689.8" fill="none" stroke="#1a1612" stroke-width="1.5" stroke-linejoin="round"/>
  <polyline points="320,65.8 340,81.4 340,97.0 320,112.6 300,128.2 280,143.8 260,159.4 260,175.0 280,190.6 300,206.2 300,221.8 280,237.4 260,253.0 260,268.6 280,284.2 300,299.8 320,315.4 340,331.0 320,346.6 340,362.2 320,377.8 340,393.4 340,409.0 320,424.6 300,440.2 280,455.8 260,471.4 260,487.0 280,502.6 300,518.2 300,533.8 280,549.4 260,565.0 260,580.6 280,596.2 300,611.8 320,627.4 340,643.0 320,658.6 340,674.2" fill="none" stroke="#1a1612" stroke-width="1.5" stroke-linejoin="round"/>
  <polyline points="500,65.8 520,81.4 520,97.0 500,112.6 480,128.2 460,143.8 440,159.4 440,175.0 460,190.6 480,206.2 480,221.8 460,237.4 440,253.0 440,268.6 460,284.2 480,299.8 500,315.4 520,331.0 500,346.6 520,362.2 500,377.8 520,393.4 520,409.0 500,424.6 480,440.2 460,455.8 440,471.4 440,487.0 460,502.6 480,518.2 480,533.8 460,549.4 440,565.0 440,580.6 460,596.2 480,611.8 500,627.4 520,643.0 500,658.6 520,674.2" fill="none" stroke="#1a1612" stroke-width="1.5" stroke-linejoin="round"/>
  <rect x="0" y="728" width="600" height="72" fill="#1a1612"/>
  <text x="300" y="758" text-anchor="middle" font-family="Georgia, serif" font-size="18" letter-spacing="3" fill="#f2ead8">THE LINE DRAWN BETWEEN THE FIGURES</text>
  <text x="300" y="782" text-anchor="middle" font-family="Georgia, serif" font-size="11" letter-spacing="2" fill="#f2ead8">GRANDSIRE ON FIVE BELLS · SIXSCORE · 1668</text>
</svg>